<svg xmlns="http://www.w3.org/2000/svg" viewBox="0 0 29.3 29.3"><path fill="#CCC" d="M14.6 0C6.6 0 0 6.6 0 14.6c0 3.5 1.3 6.8 3.4 9.3v-9.3c0-6.2 5.1-11.3 11.3-11.3S26 8.4 26 14.6s-5.1 11.3-11.3 11.3c-2.3 0-4.5-.7-6.3-1.9v3.8c1.9.9 4 1.4 6.3 1.4 8.1 0 14.6-6.6 14.6-14.6S22.7 0 14.6 0z"/><path fill="#EE1D23" d="M14.9 8.3c.2 0 .4 0 .6.1.9.1 1.6.4 2.4.8-.2.2-.4.5-.6.7-.8 1-1.6 1.9-2.4 2.8-.5.5-1 1-1.5 1.3-.1.1-.1.1-.2.1 0-.1.1-.3.1-.4.3-1 .8-2 1.2-2.9.2-.4.1-.8-.2-1.1-.3-.3-.7-.4-1.1-.2-.2.1-.4.3-.5.5-.1.3-.3.6-.4.9-.4.9-.7 1.7-.9 2.6-.1.5-.2 1-.2 1.4 0 .2 0 .4.1.6.1.4.5.7.9.7s.9-.1 1.3-.3c.6-.3 1.1-.7 1.5-1.1.1-.1.2-.2.4-.3-1.3 1.8-2.7 3.6-4.4 5.1l-.1-.1c-1.3-1-2.2-2.3-2.4-4 0-.2-.1-.4-.1-.7v-.7c0-.2 0-.5.1-.7.3-1.5 1-2.8 2.3-3.8.9-.7 2-1.2 3.1-1.3.2 0 .3 0 .5-.1.1.1.3.1.5.1zm4.8 2.6c1.6 2.1 1.7 5.2-.1 7.6-1.9 2.4-4.8 2.8-6.8 2.1 1.4-1.5 2.6-3 3.7-4.7 1.1-1.6 2.2-3.3 3.2-5z"/><path fill="#7F7F7F" d="M14.6 24.8C9 24.8 4.5 20.3 4.5 14.7S9.1 4.6 14.6 4.6c2.7 0 5.2 1 7.1 2.9.4.4.4 1 0 1.4-.4.4-1 .4-1.4 0-1.5-1.5-3.5-2.3-5.7-2.3-4.5 0-8.1 3.6-8.1 8.1s3.6 8.1 8.1 8.1c2.3 0 4.3-.9 5.9-2.6.4-.4 1-.4 1.4 0 .4.4.4 1 0 1.4-1.8 2-4.5 3.2-7.3 3.2z"/></svg>