<?xml version="1.0" encoding="utf-8"?>
<!-- Generator: Adobe Illustrator 18.1.1, SVG Export Plug-In . SVG Version: 6.00 Build 0)  -->
<svg version="1.1" xmlns="http://www.w3.org/2000/svg" xmlns:xlink="http://www.w3.org/1999/xlink" x="0px" y="0px"
	 viewBox="0 0 136.6 150.9" enable-background="new 0 0 136.6 150.9" xml:space="preserve">
<g id="Фон">
	<g id="Заливка">
		<path fill="#FFFFFF" d="M128.7,150.9H7.8c-4.3,0-7.8-3.5-7.8-7.8V22c0-4.3,3.5-7.8,7.8-7.8h120.9c4.3,0,7.8,3.5,7.8,7.8v121
			C136.6,147.4,133.1,150.9,128.7,150.9z"/>
	</g>
	<g id="Декор">
		<defs>
			<path id="SVGID_1_" d="M128.7,150.9H7.8c-4.3,0-7.8-3.5-7.8-7.8V22c0-4.3,3.5-7.8,7.8-7.8h120.9c4.3,0,7.8,3.5,7.8,7.8v121
				C136.6,147.4,133.1,150.9,128.7,150.9z"/>
		</defs>
		<clipPath id="SVGID_2_">
			<use xlink:href="#SVGID_1_"  overflow="visible"/>
		</clipPath>
		<path clip-path="url(#SVGID_2_)" fill="#B2B2B2" d="M128.7,150.9H7.8c-4.3,0,65.2,9.6,100.4-22.1C141.3,99,136.6,19.9,136.6,22
			v121C136.6,147.4,133.1,150.9,128.7,150.9z"/>
		<path clip-path="url(#SVGID_2_)" fill="#878787" d="M128.7,150.9H7.8c-4.3,0,77.1,17.6,112.2-14.1C153.1,107,136.6,19.9,136.6,22
			v121C136.6,147.4,133.1,150.9,128.7,150.9z"/>
	</g>
	<path id="Контур" fill="#575756" d="M128.7,18.2c2.1,0,3.8,1.7,3.8,3.8v121c0,2.1-1.7,3.8-3.8,3.8H7.8
		c-2.1,0-3.8-1.7-3.8-3.8V22c0-2.1,1.7-3.8,3.8-3.8H128.7 M128.7,14.2H7.8C3.5,14.2,0,17.7,0,22v121c0,4.3,3.5,7.8,7.8,7.8h120.9
		c4.3,0,7.8-3.5,7.8-7.8V22C136.6,17.7,133.1,14.2,128.7,14.2L128.7,14.2z"/>
</g>
<g id="Чушка">
	<path fill="#E30613" d="M43.9,118c-11.7-9-18-20.6-17.7-35.5c0.3-16,9.7-30.4,24.1-37C63.8,39.4,77,40.3,90,47.4
		c-0.6,0.7-1.1,1.4-1.6,2c-6,7.5-12,14.9-18.7,21.8c-3.1,3.2-6.2,6.2-9.9,8.8c-0.5,0.4-1.1,0.7-1.8,1.2c0.2-0.8,0.4-1.4,0.6-2
		c2.3-7.1,5.3-13.9,8.6-20.6c1.3-2.5,0.8-5.6-1.2-7.5c-2-2-5.1-2.4-7.5-1c-1.1,0.6-2,1.5-2.5,2.6c-1.2,2.6-2.4,5.3-3.6,7.9
		c-2.3,5.5-4.4,11.1-5.8,17c-0.6,2.5-1.1,5.1-1.1,7.7c0,1.4,0.1,2.8,0.4,4.2c0.8,3.7,3.5,5.5,7.3,5.3c3.7-0.2,6.9-1.5,10-3.4
		c3.5-2.2,6.6-4.8,9.6-7.7c0.1-0.1,0.2-0.3,0.4-0.3C64.2,95.6,54.8,107.4,43.9,118z"/>
	<path fill="#E30613" d="M102.2,58.8c9.2,11.9,12.1,31.7,1.1,48.1c-11.7,17.5-32.2,21.9-47.6,16.8C73.7,103.8,88.4,81.6,102.2,58.8z
		"/>
</g>
<g id="Пружинки">
	<path fill="#575756" d="M22,28.3h-1.8c-3.4,0-6.2-2.8-6.2-6.2v-16C14,2.8,16.7,0,20.1,0L22,0c3.4,0,6.2,2.8,6.2,6.2v16
		C28.1,25.6,25.4,28.3,22,28.3z"/>
	<path fill="#575756" d="M69.2,28.3h-1.8c-3.4,0-6.2-2.8-6.2-6.2v-16C61.2,2.8,64,0,67.4,0l1.8,0c3.4,0,6.2,2.8,6.2,6.2v16
		C75.4,25.6,72.6,28.3,69.2,28.3z"/>
	<path fill="#575756" d="M116.2,28.3h-1.8c-3.4,0-6.2-2.8-6.2-6.2v-16c0-3.4,2.8-6.2,6.2-6.2l1.8,0c3.4,0,6.2,2.8,6.2,6.2v16
		C122.4,25.6,119.6,28.3,116.2,28.3z"/>
</g>
<g id="Блики">
	<path fill="#706F6F" d="M14,22.2v-16C14,2.8,16.7,0,20.1,0L22,0c3.4,0,6.2,2.8,6.2,6.2C28.1,6.2,14,25.6,14,22.2z"/>
	<path fill="#706F6F" d="M61.2,22.2v-16C61.2,2.8,64,0,67.4,0l1.8,0c3.4,0,6.2,2.8,6.2,6.2C75.4,6.2,61.2,25.6,61.2,22.2z"/>
	<path fill="#706F6F" d="M108.2,22.2v-16c0-3.4,2.8-6.2,6.2-6.2l1.8,0c3.4,0,6.2,2.8,6.2,6.2C122.4,6.2,108.2,25.6,108.2,22.2z"/>
</g>
</svg>
