<svg xmlns="http://www.w3.org/2000/svg" xmlns:xlink="http://www.w3.org/1999/xlink" viewBox="0 0 136.6 150.9"><path fill="#FFF" d="M128.7 150.9H7.8c-4.3 0-7.8-3.5-7.8-7.8V22c0-4.3 3.5-7.8 7.8-7.8h120.9c4.3 0 7.8 3.5 7.8 7.8v121c.1 4.4-3.4 7.9-7.8 7.9z"/><defs><path id="a" d="M128.7 150.9H7.8c-4.3 0-7.8-3.5-7.8-7.8V22c0-4.3 3.5-7.8 7.8-7.8h120.9c4.3 0 7.8 3.5 7.8 7.8v121c.1 4.4-3.4 7.9-7.8 7.9z"/></defs><clipPath id="b"><use xlink:href="#a" overflow="visible"/></clipPath><path fill="#B2B2B2" d="M128.7 150.9H7.8c-4.3 0 65.2 9.6 100.4-22.1C141.3 99 136.6 19.9 136.6 22v121c0 4.4-3.5 7.9-7.9 7.9z" clip-path="url(#b)"/><path fill="#878787" d="M128.7 150.9H7.8c-4.3 0 77.1 17.6 112.2-14.1C153.1 107 136.6 19.9 136.6 22v121c0 4.4-3.5 7.9-7.9 7.9z" clip-path="url(#b)"/><path fill="#575756" d="M128.7 18.2c2.1 0 3.8 1.7 3.8 3.8v121c0 2.1-1.7 3.8-3.8 3.8H7.8c-2.1 0-3.8-1.7-3.8-3.8V22c0-2.1 1.7-3.8 3.8-3.8h120.9m0-4H7.8C3.5 14.2 0 17.7 0 22v121c0 4.3 3.5 7.8 7.8 7.8h120.9c4.3 0 7.8-3.5 7.8-7.8V22c.1-4.3-3.4-7.8-7.8-7.8z"/><path fill="#E30613" d="M43.9 118c-11.7-9-18-20.6-17.7-35.5.3-16 9.7-30.4 24.1-37C63.8 39.4 77 40.3 90 47.4c-.6.7-1.1 1.4-1.6 2-6 7.5-12 14.9-18.7 21.8-3.1 3.2-6.2 6.2-9.9 8.8-.5.4-1.1.7-1.8 1.2.2-.8.4-1.4.6-2 2.3-7.1 5.3-13.9 8.6-20.6 1.3-2.5.8-5.6-1.2-7.5-2-2-5.1-2.4-7.5-1-1.1.6-2 1.5-2.5 2.6-1.2 2.6-2.4 5.3-3.6 7.9-2.3 5.5-4.4 11.1-5.8 17-.6 2.5-1.1 5.1-1.1 7.7 0 1.4.1 2.8.4 4.2.8 3.7 3.5 5.5 7.3 5.3 3.7-.2 6.9-1.5 10-3.4 3.5-2.2 6.6-4.8 9.6-7.7.1-.1.2-.3.4-.3-9 12.2-18.4 24-29.3 34.6zm58.3-59.2c9.2 11.9 12.1 31.7 1.1 48.1-11.7 17.5-32.2 21.9-47.6 16.8 18-19.9 32.7-42.1 46.5-64.9z"/><path fill="#575756" d="M22 28.3h-1.8c-3.4 0-6.2-2.8-6.2-6.2v-16C14 2.8 16.7 0 20.1 0H22c3.4 0 6.2 2.8 6.2 6.2v16c-.1 3.4-2.8 6.1-6.2 6.1zm47.2 0h-1.8c-3.4 0-6.2-2.8-6.2-6.2v-16C61.2 2.8 64 0 67.4 0h1.8c3.4 0 6.2 2.8 6.2 6.2v16c0 3.4-2.8 6.1-6.2 6.1zm47 0h-1.8c-3.4 0-6.2-2.8-6.2-6.2v-16c0-3.4 2.8-6.2 6.2-6.2h1.8c3.4 0 6.2 2.8 6.2 6.2v16c0 3.5-2.8 6.2-6.2 6.2z"/><path fill="#706F6F" d="M14 22.2v-16C14 2.8 16.7 0 20.1 0H22c3.4 0 6.2 2.8 6.2 6.2-.1 0-14.2 19.4-14.2 16zm47.2 0v-16C61.2 2.8 64 0 67.4 0h1.8c3.4 0 6.2 2.8 6.2 6.2 0 0-14.2 19.4-14.2 16zm47 0v-16c0-3.4 2.8-6.2 6.2-6.2h1.8c3.4 0 6.2 2.8 6.2 6.2 0 0-14.2 19.4-14.2 16z"/></svg>